<svg viewBox="0 0 18.7324 15.7969" xmlns="http://www.w3.org/2000/svg" xmlns:xlink="http://www.w3.org/1999/xlink" width="18.732422" height="15.796875" fill="none" customFrame="#000000">
	<path id="Vector" d="M13.5809 0C16.4263 0 18.7323 2.1347 18.7323 5.1233C18.7323 11.1005 11.7077 14.5161 9.36618 15.7969C7.0246 14.5161 0 11.1005 0 5.1233C0 2.1347 2.34154 0 5.15137 0C6.89346 0 8.42951 0.853881 9.36618 1.70776C10.3027 0.853881 11.8388 0 13.5809 0ZM10.2409 13.324C11.066 12.8493 11.8107 12.3771 12.5076 11.8716C15.2996 9.84785 16.859 7.63625 16.859 5.1233C16.859 3.10813 15.4195 1.70776 13.5809 1.70776C12.573 1.70776 11.4828 2.19447 10.6904 2.91515L9.36618 4.12254L8.04175 2.91515C7.24938 2.19447 6.15916 1.70776 5.15137 1.70776C3.33434 1.70776 1.87323 3.12179 1.87323 5.1233C1.87323 7.63715 3.43362 9.84785 6.22379 11.8716C6.92157 12.3771 7.66618 12.8493 8.49133 13.3232C8.77134 13.4846 9.04863 13.6391 9.36618 13.8116C9.68362 13.6391 9.96091 13.4846 10.2409 13.324Z" fill="rgb(255,255,255)" fill-rule="nonzero" />
</svg>
