<svg viewBox="0 0 19.6084 22" xmlns="http://www.w3.org/2000/svg" xmlns:xlink="http://www.w3.org/1999/xlink" width="19.608398" height="22.000000" fill="none">
	<rect id="next 1" width="19.608376" height="22.000002" x="0.000000" y="0.000000" fill="rgb(255,255,255)" fill-opacity="0" transform="matrix(-1,-9.80857e-08,7.7919e-08,-1,19.6084,22)" />
	<g id="Group">
		<g id="Group">
			<path id="Vector" d="M10.3665 10.3963L1.29701 0.248783C0.999862 -0.0834925 0.518769 -0.082934 0.222117 0.250502C-0.0743057 0.583895 -0.0735398 1.12397 0.223649 1.4565L8.75326 11L0.223342 20.5435C-0.073808 20.8761 -0.0745739 21.4158 0.22181 21.7493C0.370519 21.9164 0.565339 22 0.760158 22C0.95448 22 1.14853 21.917 1.29697 21.751L10.3665 11.6037C10.5096 11.444 10.5899 11.2266 10.5899 11C10.5899 10.7735 10.5094 10.5563 10.3665 10.3963Z" fill="rgb(17,33,55)" fill-rule="nonzero" transform="matrix(-1,-9.80857e-08,7.7919e-08,-1,15.0991,22)" />
		</g>
	</g>
</svg>
